# xmcd CD database file
#
# Track frame offsets:
#	150
#	16037
#	28065
#	40062
#	48307
#	56580
#	68462
#	80540
#	88145
#	95762
#	103635
#	111602
#	122860
#	133997
#	144382
#	154847
#	172507
#	190095
#	205242
#	220585
#	234680
#	245942
#	255692
#	265580
#	276497
#
# Disc length: 3832 seconds
#
# Revision: 0
# Processed by: cddbd v1.5PL3 Copyright (c) Steve Scherf et al.
# Submitted via: CDex 1.51
#
DISCID=6a0ef619
DTITLE=Julian Colbeck with Jonathan Cohen - Back to Bach
DYEAR=1900
DGENRE=New Age
TTITLE0=Old Faces at Heaven's Gate
TTITLE1=Pure February
TTITLE2=Prelude I (Pure February)
TTITLE3=Septembrist
TTITLE4=Fugue I (Septembrist)
TTITLE5=4th of July
TTITLE6=Prelude II (4th of July)
TTITLE7=Riding the March of Dimes
TTITLE8=Fugue II (Riding the March of Dimes)
TTITLE9=Case of January
TTITLE10=Prelude III (Case of January)
TTITLE11=June Daze
TTITLE12=Fugue III (June Daze)
TTITLE13=No, No, November
TTITLE14=Prelude IV (No, No, November)
TTITLE15=St Augustine
TTITLE16=Fugue IV (St Augustine)
TTITLE17=Faces from Old Photos Rediscovered
TTITLE18=Prelude V (Heaven's Gate)
TTITLE19=Maybe, Maybe Not
TTITLE20=Fugue V (Maybe, Maybe Not)
TTITLE21=April's Fool
TTITLE22=Prelude VI (April's Fool)
TTITLE23=Man of December
TTITLE24=Fugue VI (Man of December)
EXTD=
EXTT0=
EXTT1=
EXTT2=
EXTT3=
EXTT4=
EXTT5=
EXTT6=
EXTT7=
EXTT8=
EXTT9=
EXTT10=
EXTT11=
EXTT12=
EXTT13=
EXTT14=
EXTT15=
EXTT16=
EXTT17=
EXTT18=
EXTT19=
EXTT20=
EXTT21=
EXTT22=
EXTT23=
EXTT24=
PLAYORDER=
